<svg width="26" height="26" viewBox="0 0 26 26" fill="none" xmlns="http://www.w3.org/2000/svg">
<path d="M17.3385 24.6471H3.25521C2.21521 24.6471 1.35938 23.7913 1.35938 22.7513V8.66797C1.35938 3.87964 3.88354 1.35547 8.67188 1.35547H17.3385C22.1269 1.35547 24.651 3.87964 24.651 8.66797V17.3346C24.651 22.123 22.1269 24.6471 17.3385 24.6471ZM8.67188 2.98047C4.79354 2.98047 2.98438 4.78964 2.98438 8.66797V22.7513C2.98438 22.903 3.10354 23.0221 3.25521 23.0221H17.3385C21.2169 23.0221 23.026 21.213 23.026 17.3346V8.66797C23.026 4.78964 21.2169 2.98047 17.3385 2.98047H8.67188Z" fill="#4A4D53"/>
<path d="M18.4115 11.1055H7.57813C7.13396 11.1055 6.76562 10.7371 6.76562 10.293C6.76562 9.8488 7.13396 9.48047 7.57813 9.48047H18.4115C18.8556 9.48047 19.224 9.8488 19.224 10.293C19.224 10.7371 18.8556 11.1055 18.4115 11.1055Z" fill="#4A4D53"/>
<path d="M15.1615 16.5195H7.57813C7.13396 16.5195 6.76562 16.1512 6.76562 15.707C6.76562 15.2629 7.13396 14.8945 7.57813 14.8945H15.1615C15.6056 14.8945 15.974 15.2629 15.974 15.707C15.974 16.1512 15.6056 16.5195 15.1615 16.5195Z" fill="#4A4D53"/>
</svg>
