<svg width="26" height="26" viewBox="0 0 26 26" fill="none" xmlns="http://www.w3.org/2000/svg">
<path d="M21.6654 8.93685V19.4993C21.6654 22.7493 19.7262 23.8327 17.332 23.8327H8.66536C6.2712 23.8327 4.33203 22.7493 4.33203 19.4993V8.93685C4.33203 5.41602 6.2712 4.60352 8.66536 4.60352C8.66536 5.27518 8.93617 5.88185 9.38034 6.32601C9.8245 6.77018 10.4312 7.04102 11.1029 7.04102H14.8945C16.2379 7.04102 17.332 5.94685 17.332 4.60352C19.7262 4.60352 21.6654 5.41602 21.6654 8.93685Z" stroke="#4A4D53" stroke-width="1.5" stroke-linecap="round" stroke-linejoin="round"/>
<path d="M17.3346 4.60352C17.3346 5.94685 16.2405 7.04102 14.8971 7.04102H11.1055C10.4338 7.04102 9.82711 6.77018 9.38294 6.32601C8.93877 5.88185 8.66797 5.27518 8.66797 4.60352C8.66797 3.26018 9.76214 2.16602 11.1055 2.16602H14.8971C15.5688 2.16602 16.1755 2.43685 16.6197 2.88102C17.0638 3.32519 17.3346 3.93185 17.3346 4.60352Z" stroke="#4A4D53" stroke-width="1.5" stroke-linecap="round" stroke-linejoin="round"/>
<path d="M8.66797 14.084H13.0013" stroke="#4A4D53" stroke-width="1.5" stroke-linecap="round" stroke-linejoin="round"/>
<path d="M8.66797 18.416H17.3346" stroke="#4A4D53" stroke-width="1.5" stroke-linecap="round" stroke-linejoin="round"/>
</svg>
