<svg width="26" height="26" viewBox="0 0 26 26" fill="none" xmlns="http://www.w3.org/2000/svg">
<path d="M12.9974 24.6452C6.57323 24.6452 1.35156 19.4235 1.35156 12.9993C1.35156 6.57518 6.57323 1.35352 12.9974 1.35352C19.4216 1.35352 24.6432 6.57518 24.6432 12.9993C24.6432 19.4235 19.4216 24.6452 12.9974 24.6452ZM12.9974 2.97852C7.4724 2.97852 2.97656 7.47435 2.97656 12.9993C2.97656 18.5243 7.4724 23.0202 12.9974 23.0202C18.5224 23.0202 23.0182 18.5243 23.0182 12.9993C23.0182 7.47435 18.5224 2.97852 12.9974 2.97852Z" fill="#4A4D53"/>
<path d="M11.4655 16.8781C11.2488 16.8781 11.043 16.7914 10.8913 16.6397L7.82547 13.5739C7.5113 13.2597 7.5113 12.7397 7.82547 12.4256C8.13964 12.1114 8.65964 12.1114 8.9738 12.4256L11.4655 14.9172L17.0338 9.34891C17.348 9.03474 17.868 9.03474 18.1821 9.34891C18.4963 9.66307 18.4963 10.1831 18.1821 10.4972L12.0396 16.6397C11.888 16.7914 11.6821 16.8781 11.4655 16.8781Z" fill="#4A4D53"/>
</svg>
